<?xml version="1.0" encoding="UTF-8" standalone="no"?>
<svg xmlns:dc="http://purl.org/dc/elements/1.1/" xmlns:cc="http://creativecommons.org/ns#" xmlns:rdf="http://www.w3.org/1999/02/22-rdf-syntax-ns#" xmlns:svg="http://www.w3.org/2000/svg" xmlns="http://www.w3.org/2000/svg" xmlns:sodipodi="http://sodipodi.sourceforge.net/DTD/sodipodi-0.dtd" xmlns:inkscape="http://www.inkscape.org/namespaces/inkscape" inkscape:version="0.92.1 r" viewBox="0 0 500.0 500.0" height="500.0" width="500.0" xml:space="preserve" version="1.1">
  <defs>
    <linearGradient id="color1" gradientUnits="userSpaceOnUse" x1="0" y1="0" x2="500.0" y2="500.0">
      <stop stop-color="#EF7D1A" offset="0"/><stop stop-color="#EF7D1A" offset="100.0"/>
    </linearGradient>
    <mask id="mask1">
      <g transform="translate(0.0, 0.0)">
        <g id="g41" transform="matrix(1.3333333,0,0,-1.3333333,0,500)"><g id="g43"><path d="m 139.59,213.246 c 4.617,0 8.406,-3.789 8.406,-8.406 v -26.606 c 0,-3.859 -2.617,-7.097 -6.203,-8.062 l -21.848,-9.031 c -0.136,-0.071 -0.277,-0.071 -0.484,-0.071 -0.344,0 -0.617,0.141 -0.895,0.414 -0.343,0.348 -0.414,0.899 -0.136,1.379 0.965,1.864 2.41,4.41 3.859,7.102 h -9.234 c -4.621,0 -8.41,3.789 -8.41,8.406 v 26.469 c 0,4.617 3.789,8.406 8.41,8.406 h 26.535 m 0,8.754 h -26.535 c -9.446,0 -17.164,-7.719 -17.164,-17.16 v -26.606 c 0,-8.269 5.929,-15.23 13.714,-16.816 0.141,-2.137 1.036,-4.207 2.485,-5.93 1.859,-2.066 4.547,-3.238 7.371,-3.238 1.312,0 2.551,0.277 3.793,0.758 l 21.434,8.89 c 7.101,2.207 11.992,8.891 11.992,16.336 v 26.606 c 0.07,9.441 -7.582,17.16 -17.09,17.16 z" id="path45" style="fill:#ffffff;fill-opacity:1;fill-rule:nonzero;stroke:none"/><path d="m 190.238,201.398 c -0.765,0.387 -0.742,0.821 0.074,1.293 0.813,0.481 0.954,1.032 0.426,1.657 -0.523,0.621 -1.34,0.976 -2.441,1.07 -1.098,0.098 -2.219,0.098 -3.371,0 -1.149,-0.094 -2.27,-0.379 -3.375,-0.859 -1.094,-0.481 -2.098,-0.981 -3.012,-1.504 -0.906,-0.528 -1.789,-1.172 -2.652,-1.942 -0.86,-0.765 -1.578,-1.504 -2.153,-2.218 -0.574,-0.719 -0.953,-1.223 -1.144,-1.508 -0.192,-0.289 -0.649,-0.434 -1.367,-0.434 -0.715,0 -1.196,0.262 -1.434,0.789 -0.238,0.528 -0.289,1.461 -0.148,2.797 0.144,1.344 0.574,2.469 1.293,3.375 0.718,0.91 1.339,1.34 1.867,1.293 0.523,-0.051 0.929,-0.266 1.219,-0.648 0.285,-0.383 0.453,-0.621 0.5,-0.719 0.05,-0.094 0.265,-0.02 0.648,0.219 0.383,0.242 0.691,0.457 0.934,0.648 0.238,0.191 0.168,0.355 -0.215,0.5 -0.383,0.141 -0.762,0.402 -1.145,0.785 -0.387,0.387 -0.601,0.867 -0.648,1.442 -0.047,0.57 0.047,1.097 0.289,1.578 0.238,0.476 0.551,0.785 0.929,0.933 0.383,0.141 0.766,0.067 1.149,-0.222 0.383,-0.282 0.789,-0.641 1.219,-1.071 0.433,-0.429 0.742,-0.648 0.933,-0.648 0.192,0 0.36,-0.07 0.5,-0.211 0.149,-0.148 0.149,-0.316 0,-0.508 -0.14,-0.191 -0.215,-0.621 -0.215,-1.293 1.055,0.387 1.774,0.602 2.157,0.645 0.379,0.051 0.425,0.144 0.136,0.289 -0.281,0.144 -0.691,0.457 -1.218,0.933 -0.524,0.481 -0.836,0.911 -0.934,1.293 -0.094,0.383 -0.187,0.934 -0.285,1.653 -0.094,0.715 0.219,1.121 0.934,1.218 0.718,0.094 1.339,0.02 1.863,-0.218 0.531,-0.235 0.937,-0.473 1.222,-0.715 0.289,-0.238 0.696,-0.313 1.219,-0.219 0.528,0.098 1.078,0.242 1.653,0.434 0.574,0.191 0.886,0.215 0.933,0.074 0.051,-0.145 -0.094,-0.481 -0.433,-1.008 -0.333,-0.523 -0.692,-0.976 -1.075,-1.359 -0.379,-0.387 -0.523,-0.746 -0.433,-1.078 0.101,-0.336 0.289,-0.5 0.574,-0.5 0.289,0 0.578,0.14 0.867,0.425 0.285,0.289 0.57,0.77 0.86,1.438 0.285,0.668 0.644,1.289 1.074,1.867 0.429,0.574 0.621,1.004 0.574,1.285 -0.047,0.289 -0.047,0.649 0,1.082 0.047,0.43 0.262,0.692 0.644,0.785 0.383,0.098 0.864,0.149 1.442,0.149 0.574,0 1.144,-0.172 1.719,-0.508 0.574,-0.332 1.05,-0.883 1.433,-1.645 0.383,-0.765 0.192,-1.195 -0.574,-1.292 -0.766,-0.102 -1.434,-0.434 -2.004,-1.008 -0.578,-0.574 -1.082,-1.004 -1.508,-1.293 -0.429,-0.285 -0.863,-0.571 -1.293,-0.86 -0.433,-0.285 -0.457,-0.425 -0.074,-0.425 0.383,0 0.789,-0.051 1.219,-0.149 0.433,-0.094 1.078,-0.332 1.941,-0.711 0.856,-0.39 1.715,-0.722 2.578,-1.008 0.864,-0.289 1.582,-0.625 2.153,-1.007 0.574,-0.383 0.957,-0.719 1.148,-1.008 0.195,-0.281 0.195,-0.641 0,-1.071 -0.191,-0.433 -0.644,-0.671 -1.359,-0.722 -0.723,-0.047 -1.321,-0.047 -1.793,0 -0.481,0.051 -1.031,-0.02 -1.656,-0.211 -0.622,-0.192 -1.411,-0.242 -2.364,-0.149 z m -6.172,-11.761 c -1.918,-0.481 -3.421,-0.91 -4.519,-1.293 -1.102,-0.383 -2.133,-0.696 -3.086,-0.934 -0.957,-0.242 -2.129,-0.359 -3.52,-0.359 -1.386,0 -2.125,0.144 -2.218,0.433 -0.098,0.282 0.14,0.692 0.711,1.219 0.578,0.524 1.535,1 2.875,1.434 1.336,0.429 2.816,0.859 4.445,1.293 1.625,0.429 2.824,0.765 3.594,1.004 0.761,0.242 1.05,0.527 0.859,0.863 -0.191,0.332 -0.625,0.687 -1.293,1.07 -0.672,0.383 -1.223,0.649 -1.656,0.793 -0.426,0.145 -0.664,0.406 -0.711,0.789 -0.051,0.379 0.168,0.668 0.644,0.86 0.477,0.191 1.028,0.308 1.649,0.359 0.621,0.047 1.101,0.238 1.441,0.574 0.332,0.336 0.524,0.84 0.571,1.504 0.05,0.672 -0.164,1.129 -0.645,1.367 -0.48,0.239 -1.484,-0.285 -3.016,-1.578 -1.531,-1.293 -2.632,-1.965 -3.296,-2.008 -0.672,-0.047 -1.176,0.141 -1.516,0.575 -0.332,0.429 -0.067,1.125 0.797,2.078 0.859,0.957 2.125,1.722 3.797,2.3 1.675,0.575 3.089,0.86 4.238,0.86 1.148,0 2.273,-0.145 3.375,-0.434 1.098,-0.285 1.859,-0.64 2.293,-1.074 0.43,-0.43 0.551,-0.836 0.359,-1.219 -0.191,-0.386 -0.55,-0.601 -1.082,-0.644 -0.523,-0.051 -1.047,-0.289 -1.57,-0.723 -0.531,-0.43 -1.031,-0.789 -1.508,-1.07 -0.48,-0.289 -0.742,-0.461 -0.793,-0.508 -0.051,-0.051 0.238,-0.145 0.86,-0.289 0.621,-0.141 0.91,-0.356 0.859,-0.645 -0.043,-0.285 -0.16,-0.5 -0.352,-0.648 -0.191,-0.141 -0.144,-0.496 0.141,-1.07 0.289,-0.575 1.387,-0.598 3.297,-0.075 1.918,0.528 3.59,0.77 5.027,0.719 1.434,-0.047 2.176,-0.453 2.227,-1.219 0.043,-0.765 -0.891,-1.265 -2.801,-1.507 -1.914,-0.239 -3.516,-0.524 -4.805,-0.86 -1.293,-0.336 -1.894,-0.722 -1.8,-1.152 0.097,-0.43 0.171,-1.387 0.218,-2.863 0.047,-1.485 -0.242,-2.899 -0.859,-4.243 -0.621,-1.336 -1.219,-2.41 -1.797,-3.226 -0.574,-0.813 -1.125,-1.34 -1.648,-1.578 -0.528,-0.239 -0.887,-0.168 -1.079,0.215 -0.191,0.386 -0.812,0.554 -1.867,0.503 -1.047,-0.046 -2.242,0.047 -3.586,0.29 -1.336,0.238 -2.293,0.597 -2.871,1.07 -0.574,0.48 -0.644,0.769 -0.215,0.867 0.43,0.094 1.102,0.094 2.012,0 0.906,-0.098 1.887,-0.027 2.942,0.215 1.05,0.238 1.89,0.527 2.511,0.859 0.621,0.332 1.196,0.86 1.719,1.578 0.531,0.715 0.867,1.625 1.008,2.727 0.14,1.102 0.023,2.035 -0.36,2.801 z m 82.528,9.609 c 0.672,1.055 1.414,2.082 2.226,3.086 0.813,1.004 1.149,1.723 1.008,2.152 -0.148,0.434 -0.555,0.696 -1.219,0.793 -0.671,0.094 -1.25,0.071 -1.726,-0.07 -0.477,-0.145 -0.617,0.047 -0.43,0.57 0.192,0.532 0.863,1.082 2.008,1.657 1.152,0.57 1.894,1.289 2.227,2.152 0.332,0.855 0.093,1.359 -0.719,1.504 -0.817,0.144 -1.531,0.07 -2.157,-0.219 -0.621,-0.285 -1.05,0.074 -1.285,1.078 -0.238,1.008 -0.625,1.844 -1.152,2.516 -0.523,0.664 -1.004,0.785 -1.434,0.359 -0.429,-0.429 -0.671,-1.222 -0.718,-2.375 -0.043,-1.144 -0.118,-1.98 -0.215,-2.504 -0.098,-0.531 -0.742,-1.082 -1.938,-1.652 -1.195,-0.574 -2.105,-1.004 -2.726,-1.293 -0.621,-0.285 -0.887,-0.645 -0.785,-1.074 0.089,-0.43 0.472,-0.766 1.144,-1.008 0.672,-0.238 1.363,-0.309 2.078,-0.211 0.723,0.094 0.985,0.043 0.793,-0.148 -0.187,-0.192 -0.957,-0.836 -2.297,-1.938 -1.339,-1.098 -2.031,-2.031 -2.082,-2.793 -0.047,-0.769 0.168,-1.226 0.649,-1.367 0.48,-0.141 1.269,0.004 2.367,0.434 1.101,0.425 1.723,0.496 1.863,0.21 0.145,-0.289 0.074,-0.648 -0.211,-1.078 -0.289,-0.425 -1.484,-1.382 -3.586,-2.867 -2.105,-1.484 -3.543,-2.824 -4.304,-4.019 -0.77,-1.196 -1.035,-1.887 -0.797,-2.079 0.242,-0.191 0.886,-0.265 1.941,-0.218 1.055,0.047 2.059,0.383 3.012,1.004 0.957,0.625 1.648,1.101 2.082,1.433 0.43,0.34 0.598,0.078 0.504,-0.785 -0.098,-0.863 -0.602,-2.133 -1.512,-3.805 -0.906,-1.671 -1.765,-3.203 -2.578,-4.593 -0.816,-1.387 -1.293,-2.438 -1.434,-3.153 -0.148,-0.718 0.52,-0.386 2.004,1 1.485,1.391 2.707,2.922 3.66,4.59 0.957,1.676 1.7,3.16 2.227,4.453 0.523,1.293 0.977,2.418 1.359,3.375 0.383,0.953 0.864,1.766 1.442,2.438 0.57,0.672 1.48,1.414 2.726,2.226 1.243,0.813 1.981,1.266 2.219,1.36 0.238,0.097 0.36,-0.379 0.36,-1.434 0,-1.051 0.046,-3.324 0.144,-6.816 0.094,-3.492 0.164,-6.004 0.215,-7.532 0.051,-1.535 0.168,-2.707 0.359,-3.519 0.192,-0.813 0.453,-1.242 0.785,-1.285 0.34,-0.051 0.747,0.617 1.223,2.004 0.481,1.386 0.742,3.203 0.793,5.453 0.047,2.246 0.074,3.969 0.074,5.164 0,1.195 0.094,1.723 0.285,1.582 0.192,-0.145 0.524,-0.406 1,-0.789 0.481,-0.383 0.77,-0.934 0.868,-1.653 0.093,-0.714 0.425,-1.289 1,-1.718 0.57,-0.43 1.05,-0.457 1.437,-0.074 0.383,0.382 0.574,0.718 0.574,1.007 0,0.282 0.453,0.926 1.36,1.93 0.91,1.008 1.605,2.395 2.078,4.168 0.48,1.77 0.816,3.18 1.008,4.23 0.191,1.055 0.238,1.774 0.148,2.157 -0.101,0.379 0.09,0.761 0.57,1.144 0.477,0.383 0.477,0.742 0,1.082 -0.48,0.332 -1.148,0.688 -2.011,1.071 -0.86,0.382 -1.575,0.621 -2.153,0.718 -0.574,0.094 -0.859,0.262 -0.859,0.5 0,0.243 0.285,0.578 0.859,1.008 0.578,0.43 1.2,0.789 1.867,1.074 0.668,0.289 1.247,0.789 1.727,1.504 0.473,0.723 0.52,1.297 0.137,1.727 -0.383,0.433 -1.098,0.816 -2.153,1.148 -1.05,0.332 -2.152,0.5 -3.296,0.5 -1.149,0 -2.344,-0.215 -3.586,-0.648 -1.246,-0.426 -2.297,-1.094 -3.161,-2.004 -0.863,-0.914 -1.484,-1.699 -1.867,-2.367 -0.383,-0.672 -0.355,-1.125 0.075,-1.367 0.429,-0.239 1.097,-0.192 2.003,0.148 0.914,0.332 1.559,0.93 1.942,1.793 0.383,0.859 1.027,1.434 1.941,1.719 0.906,0.289 1.504,0.363 1.793,0.218 0.281,-0.144 0.281,-0.722 0,-1.726 -0.289,-1.004 -0.625,-1.84 -1.008,-2.512 -0.382,-0.668 -0.836,-1.265 -1.359,-1.793 -0.531,-0.523 -0.578,-1.027 -0.148,-1.508 0.433,-0.472 1.003,-0.57 1.718,-0.285 0.723,0.289 1.297,0.121 1.727,-0.5 0.433,-0.621 0.648,-1.461 0.648,-2.511 0,-1.055 -0.191,-2.106 -0.574,-3.161 -0.387,-1.054 -0.769,-1.793 -1.152,-2.218 -0.383,-0.43 -0.957,-0.532 -1.719,-0.293 -0.766,0.238 -1.219,0.48 -1.367,0.718 -0.141,0.239 -0.164,1.461 -0.067,3.661 0.094,2.199 0.02,4.109 -0.218,5.738 -0.239,1.625 -0.692,2.488 -1.36,2.586 -0.672,0.097 -1.176,-0.094 -1.508,-0.574 -0.339,-0.481 -0.507,-1.293 -0.507,-2.438 0,-1.152 -0.02,-1.773 -0.067,-1.867 -0.047,-0.098 -0.406,-0.359 -1.078,-0.785 -0.672,-0.434 -1.918,-0.938 -3.734,-1.516 z" id="path47" style="fill:#ffffff;fill-opacity:1;fill-rule:nonzero;stroke:none"/><path d="m 173.617,166.965 h 8.305 v -0.27 h -2.508 c -0.344,-1.035 -0.769,-1.929 -1.273,-2.679 -0.5,-0.754 -1.094,-1.391 -1.778,-1.911 l 5.047,-1.941 -0.121,-0.316 -5.25,2.015 c -0.793,-0.539 -1.699,-0.961 -2.715,-1.265 -1.019,-0.301 -2.172,-0.52 -3.457,-0.653 l -0.051,0.336 c 1.196,0.125 2.27,0.321 3.231,0.586 0.961,0.266 1.824,0.645 2.59,1.141 l -3.707,1.433 c -0.16,0.075 -0.266,0.157 -0.317,0.247 -0.047,0.093 -0.027,0.226 0.063,0.39 l 1.418,2.617 H 169.5 l 0.219,0.27 h 3.523 l 1.5,2.769 0.293,-0.187 z m -1.64,-3.121 c 0.007,-0.043 0.035,-0.071 0.082,-0.082 l 3.914,-1.508 c 0.679,0.496 1.273,1.105 1.785,1.824 0.508,0.719 0.941,1.594 1.289,2.617 h -5.57 l -1.489,-2.738 c -0.027,-0.031 -0.035,-0.066 -0.011,-0.113 z m 3.628,8.32 0.336,0.117 v -1.297 h 4.899 c 0.129,0 0.242,-0.039 0.336,-0.121 0.09,-0.078 0.136,-0.195 0.136,-0.351 v -1.926 h -0.335 v 1.875 c 0,0.168 -0.079,0.254 -0.227,0.254 h -10.102 c -0.062,0 -0.109,-0.02 -0.144,-0.059 -0.039,-0.043 -0.059,-0.09 -0.059,-0.144 v -1.926 h -0.336 v 1.992 c 0,0.133 0.039,0.231 0.118,0.301 0.074,0.07 0.171,0.105 0.285,0.105 h 5.093 z m 15.434,-11.695 h 5.789 v -0.27 h -12.012 l 0.246,0.27 h 5.641 v 3.324 h -4.547 l 0.258,0.254 h 4.289 v 3.203 h -3.617 l 0.273,0.27 h 7.192 v -0.27 h -3.512 v -3.203 h 4.523 v -0.254 h -4.523 z m 0.234,12.031 0.27,-0.188 -0.391,-0.472 c 0.844,-1.043 1.789,-1.942 2.828,-2.692 1.04,-0.757 2.094,-1.359 3.165,-1.808 l -0.122,-0.309 c -1.168,0.516 -2.25,1.133 -3.238,1.856 -0.988,0.722 -1.941,1.625 -2.851,2.707 -0.911,-1.028 -1.872,-1.91 -2.887,-2.656 -1.02,-0.75 -2.137,-1.415 -3.352,-1.989 l -0.148,0.317 c 1.359,0.609 2.598,1.363 3.719,2.265 1.121,0.899 2.121,1.891 3.007,2.969 z m 17.122,0 0.316,-0.051 c -0.086,-0.406 -0.18,-0.828 -0.285,-1.261 -0.11,-0.43 -0.235,-0.872 -0.367,-1.321 h 4.265 v -0.269 h -0.972 c -0.098,-1.375 -0.301,-2.578 -0.618,-3.61 -0.312,-1.023 -0.742,-1.941 -1.281,-2.75 0.395,-0.664 0.828,-1.254 1.305,-1.769 0.48,-0.512 0.988,-0.957 1.531,-1.336 l -0.203,-0.242 c -0.535,0.375 -1.039,0.816 -1.516,1.32 -0.476,0.508 -0.914,1.086 -1.32,1.734 -0.406,-0.57 -0.867,-1.093 -1.387,-1.566 -0.515,-0.481 -1.093,-0.938 -1.734,-1.367 l -0.164,0.285 c 0.629,0.406 1.207,0.851 1.726,1.336 0.512,0.484 0.973,1.031 1.379,1.633 -0.406,0.703 -0.742,1.468 -1.011,2.296 -0.27,0.825 -0.457,1.715 -0.555,2.672 -0.207,-0.543 -0.426,-1.058 -0.66,-1.554 -0.235,-0.496 -0.485,-0.946 -0.742,-1.352 l -0.243,0.203 c 0.27,0.426 0.532,0.918 0.789,1.481 0.254,0.562 0.493,1.156 0.719,1.777 0.227,0.617 0.426,1.246 0.602,1.883 0.179,0.633 0.32,1.242 0.426,1.828 z m -0.418,-2.902 -0.211,-0.645 c 0.078,-1.09 0.25,-2.078 0.515,-2.965 0.266,-0.879 0.598,-1.683 0.992,-2.414 0.485,0.797 0.872,1.684 1.161,2.664 0.293,0.981 0.484,2.098 0.578,3.36 z m -7.883,-1.364 h 2.472 v 2.309 h -2.152 l 0.316,0.269 h 1.836 v 1.657 h 0.34 v -1.657 h 2.024 v -0.269 h -2.024 v -2.309 h 1.102 c 0.469,0.539 0.883,1.11 1.246,1.715 0.359,0.602 0.644,1.215 0.859,1.84 l 0.301,-0.129 c -0.48,-1.23 -1.137,-2.371 -1.973,-3.426 h 1.84 v -0.273 h -2.07 c -0.305,-0.367 -0.629,-0.715 -0.969,-1.035 -0.336,-0.324 -0.695,-0.625 -1.078,-0.906 h 2.789 c 0.188,0 0.305,-0.051 0.344,-0.149 0.039,-0.101 0.008,-0.219 -0.098,-0.355 l -1.82,-1.778 c -0.031,-0.035 -0.059,-0.086 -0.082,-0.156 -0.031,-0.066 -0.047,-0.121 -0.047,-0.164 v -0.473 l 3.066,0.563 0.055,-0.285 -3.121,-0.578 v -2.176 c 0,-0.235 -0.043,-0.399 -0.129,-0.492 -0.082,-0.102 -0.258,-0.145 -0.516,-0.129 l -1.785,0.136 v 0.262 l 1.754,-0.129 c 0.137,-0.004 0.227,0.016 0.27,0.059 0.047,0.047 0.07,0.144 0.07,0.293 v 2.109 l -3.023,-0.555 -0.067,0.301 3.09,0.563 v 0.554 c 0,0.098 0.016,0.188 0.051,0.262 0.031,0.078 0.078,0.16 0.144,0.238 l 1.844,1.809 h -3.172 c -0.297,-0.203 -0.601,-0.395 -0.918,-0.57 -0.312,-0.168 -0.636,-0.321 -0.972,-0.457 l -0.153,0.269 c 0.707,0.281 1.407,0.68 2.102,1.192 0.699,0.519 1.348,1.113 1.941,1.777 h -3.957 z m 17.054,-1.441 h 8.079 c 0.269,0 0.402,-0.133 0.402,-0.398 v -5.829 c 0,-0.234 -0.043,-0.402 -0.125,-0.507 -0.086,-0.102 -0.266,-0.145 -0.535,-0.129 l -2.895,0.148 v 0.301 l 2.813,-0.149 c 0.152,-0.011 0.254,0.012 0.316,0.067 0.059,0.055 0.09,0.156 0.09,0.308 v 1.704 h -8.215 v -2.43 h -0.336 v 6.516 c 0,0.265 0.137,0.398 0.406,0.398 z m -0.07,-2.379 v -1.836 h 8.215 v 1.836 z m 0,1.973 v -1.703 h 8.215 v 1.703 c 0,0.035 -0.02,0.066 -0.055,0.09 -0.039,0.031 -0.074,0.046 -0.109,0.046 h -7.867 c -0.047,0 -0.086,-0.015 -0.121,-0.046 -0.039,-0.024 -0.063,-0.055 -0.063,-0.09 z m 6.406,3.789 0.227,0.23 3.117,-3.074 -0.215,-0.246 -1.117,1.094 -9.074,-0.418 c -0.125,-0.012 -0.211,0.039 -0.25,0.148 -0.039,0.11 -0.02,0.211 0.062,0.309 l 2.903,2.781 h -3.821 l 0.278,0.27 h 5.363 v 1.066 l 0.34,0.133 v -1.199 h 5.902 V 171 h -7.676 l -2.992,-2.941 8.696,0.39 z m 17.746,-2.992 h -3.757 c -0.071,-0.922 -0.18,-1.735 -0.332,-2.446 -0.145,-0.711 -0.332,-1.355 -0.563,-1.937 -0.226,-0.578 -0.5,-1.11 -0.816,-1.59 -0.313,-0.473 -0.676,-0.93 -1.078,-1.371 l -0.27,0.226 c 0.504,0.524 0.934,1.098 1.289,1.715 0.356,0.621 0.645,1.328 0.871,2.125 0.223,0.797 0.387,1.707 0.485,2.731 0.105,1.019 0.16,2.195 0.16,3.531 h -2.403 l 0.204,0.27 h 3.546 v 1.89 l 0.34,0.133 v -2.023 h 3.711 v -0.27 h -5.047 c 0,-1 -0.027,-1.906 -0.082,-2.715 h 3.891 c 0.18,0 0.297,-0.039 0.348,-0.121 0.054,-0.086 0.082,-0.191 0.082,-0.316 v -6.567 c 0,-0.238 -0.063,-0.398 -0.188,-0.488 -0.125,-0.09 -0.289,-0.129 -0.488,-0.113 l -2.754,0.179 v 0.309 l 2.73,-0.172 c 0.231,-0.031 0.344,0.074 0.344,0.32 v 6.481 c 0,0.101 -0.012,0.16 -0.043,0.18 -0.031,0.027 -0.09,0.039 -0.18,0.039 z m -6.863,4.64 h -3.515 c -0.067,0 -0.118,-0.019 -0.161,-0.058 -0.039,-0.039 -0.058,-0.09 -0.058,-0.145 v -11.797 h -0.336 v 11.813 c 0,0.304 0.172,0.457 0.523,0.457 h 3.645 c 0.125,0 0.207,-0.035 0.238,-0.106 0.043,-0.062 0.043,-0.152 0,-0.261 l -1.656,-4.559 c -0.055,-0.145 -0.051,-0.262 0.015,-0.352 0.586,-0.82 0.997,-1.539 1.231,-2.152 0.23,-0.617 0.32,-1.129 0.277,-1.539 -0.047,-0.41 -0.207,-0.711 -0.488,-0.906 -0.285,-0.192 -0.652,-0.274 -1.102,-0.25 l -1.199,0.07 v 0.285 l 1.281,-0.054 c 0.282,-0.008 0.536,0.054 0.766,0.187 0.234,0.137 0.375,0.371 0.426,0.707 0.051,0.34 -0.027,0.793 -0.238,1.363 -0.215,0.571 -0.625,1.282 -1.223,2.137 -0.082,0.109 -0.125,0.199 -0.137,0.262 -0.008,0.07 0.004,0.156 0.039,0.258 z m 15.699,-3.605 v -7.668 c 0,-0.11 0.02,-0.184 0.067,-0.223 0.043,-0.039 0.121,-0.062 0.226,-0.062 h 6.321 c 0.179,0 0.3,0.05 0.359,0.152 0.055,0.098 0.098,0.246 0.129,0.441 l 0.32,2.028 0.34,-0.071 -0.34,-2.046 c -0.043,-0.29 -0.129,-0.489 -0.261,-0.598 -0.129,-0.117 -0.301,-0.176 -0.508,-0.176 h -6.453 c -0.18,0 -0.313,0.035 -0.403,0.106 -0.09,0.066 -0.136,0.203 -0.136,0.414 v 7.746 c 0,0.125 0.035,0.222 0.105,0.293 0.074,0.074 0.176,0.113 0.301,0.113 h 5.707 c 0.156,0 0.262,-0.039 0.324,-0.113 0.055,-0.071 0.082,-0.168 0.082,-0.293 v -4.348 c 0,-0.152 -0.047,-0.273 -0.137,-0.367 -0.089,-0.098 -0.246,-0.141 -0.472,-0.129 l -3.008,0.121 v 0.305 l 2.957,-0.117 c 0.125,-0.012 0.211,0 0.254,0.035 0.047,0.039 0.066,0.113 0.066,0.218 v 4.239 c 0,0.117 -0.051,0.179 -0.156,0.179 h -5.551 c -0.09,0 -0.133,-0.062 -0.133,-0.179 z m -1.382,4.242 h 0.339 v -1.145 h 4.973 v 1.145 h 0.336 v -1.145 h 3.496 v -0.269 h -3.496 v -1.621 h -0.336 v 1.621 h -4.973 v -1.621 h -0.339 v 1.621 h -3.481 l 0.176,0.269 h 3.305 z m -2.668,-12.613 -0.286,0.203 2.348,3.89 0.285,-0.187 z m 0.39,9.195 0.215,0.254 2.32,-2.031 -0.242,-0.27 z m -1.109,-2.484 0.191,0.285 2.364,-1.805 -0.215,-0.301 z m 16.875,-2.528 v 3.407 c 0,0.144 0.027,0.246 0.082,0.3 0.058,0.051 0.18,0.074 0.359,0.074 h 8.317 c 0.16,0 0.269,-0.027 0.332,-0.082 0.058,-0.058 0.09,-0.152 0.09,-0.277 v -3.406 c 0,-0.133 -0.036,-0.231 -0.106,-0.293 -0.066,-0.055 -0.18,-0.082 -0.348,-0.082 h -8.3 c -0.172,0 -0.286,0.027 -0.344,0.082 -0.055,0.062 -0.082,0.152 -0.082,0.277 z m 8.84,1.84 v 1.527 c 0,0.098 -0.051,0.145 -0.149,0.145 h -8.215 c -0.093,0 -0.14,-0.047 -0.14,-0.145 v -1.527 z m -8.504,-0.269 v -1.508 c 0,-0.102 0.047,-0.153 0.14,-0.153 h 8.215 c 0.098,0 0.149,0.051 0.149,0.153 v 1.508 z m 0.883,4.902 0.285,0.187 0.961,-1.582 h 4.215 l 0.953,1.582 0.285,-0.187 -0.848,-1.395 h 3.797 v -0.269 h -12.504 l 0.188,0.269 h 3.511 z m 0.804,-10.305 h 5.168 c 0.16,0 0.274,0.028 0.336,0.074 0.067,0.051 0.117,0.168 0.153,0.348 l 0.171,1.52 0.336,-0.067 -0.171,-1.484 c -0.055,-0.262 -0.133,-0.434 -0.235,-0.524 -0.098,-0.089 -0.301,-0.136 -0.605,-0.136 h -5.219 c -0.246,0 -0.41,0.043 -0.496,0.129 -0.086,0.082 -0.129,0.222 -0.129,0.41 v 2.515 h 0.34 v -2.445 c 0,-0.227 0.117,-0.34 0.351,-0.34 z m 2.364,12.098 0.336,0.137 v -0.918 h 4.793 v -0.27 h -10.036 l 0.188,0.27 h 4.719 z m 1.957,-10.762 -0.18,-0.293 -2.875,1.688 0.176,0.285 z m 4.328,-1.371 -0.293,-0.168 -1.434,2.649 0.301,0.171 z m -11.903,-0.121 -0.316,0.121 1.125,2.781 0.309,-0.136 z m 16.821,7.492 v -6.984 c 0,-0.203 0.113,-0.285 0.34,-0.239 l 1.648,0.36 0.016,-0.309 -1.704,-0.386 c -0.191,-0.047 -0.343,-0.028 -0.457,0.05 -0.121,0.082 -0.179,0.223 -0.179,0.426 v 7.024 c 0,0.097 -0.055,0.148 -0.16,0.148 h -1.731 l 0.18,0.27 h 1.711 c 0.129,0 0.219,-0.032 0.269,-0.098 0.043,-0.07 0.067,-0.156 0.067,-0.262 z m -1.133,4.746 0.301,0.168 1.808,-3.054 -0.3,-0.172 z m 4.269,-6.515 v 5.617 c 0,0.258 0.114,0.39 0.336,0.39 h 5.86 c 0.215,0 0.32,-0.125 0.32,-0.367 v -5.656 c 0,-0.25 -0.117,-0.375 -0.359,-0.375 h -5.805 c -0.234,0 -0.352,0.129 -0.352,0.391 z m 0.321,5.586 v -5.551 c 0,-0.102 0.051,-0.156 0.152,-0.156 h 5.563 c 0.097,0 0.144,0.046 0.144,0.144 v 5.563 c 0,0.101 -0.047,0.152 -0.144,0.152 h -5.563 c -0.101,0 -0.152,-0.051 -0.152,-0.152 z m 4.578,-7.118 2.203,-4.207 -0.285,-0.179 -2.199,4.214 z m -5.492,-4.207 2.199,4.207 0.285,-0.172 -2.199,-4.214 z" id="path49" style="fill:#ffffff;fill-opacity:1;fill-rule:nonzero;stroke:none"/></g></g>
      </g>
    </mask>
  </defs>
  <rect x="0" y="0" width="500.0" height="500.0" fill="url(#color1)" mask="url(#mask1)" />
</svg>